#tb 0: 1/1000
0,          0,          0,        0,     3072, caa8471a8b381d53c3e8fc627946a871
0,         33,         33,        0,     3072, 2cba86ea14c0f28e242625b08f5e9b88
0,         66,         66,        0,     3072, cea0440ff6569fc82c3030e0340fb649
0,        100,        100,        0,     3072, c18ef37f1356ade96a2f40af954b31c8
0,        133,        133,        0,     3072, 21e6e549378bcff47913ef292e74dc37
0,        166,        166,        0,     3072, a9d3d483f74a5afe5d80725ce696fd20
0,        200,        200,        0,     3072, a436e2586b0963747deaf5e450e2b230
0,        233,        233,        0,     3072, 9daaadf265df56974cb0950843d9fd8c
0,        266,        266,        0,     3072, e0b84714bad2519e62b7d16705fb09d5
0,        300,        300,        0,     3072, 8cdfce574edbe548da7f6cd9a7076b9e
